<?xml version="1.0" encoding="UTF-8" standalone="no"?>
<!-- Created with Inkscape (http://www.inkscape.org/) -->

<svg
   width="210mm"
   height="297mm"
   viewBox="0 0 210 297"
   version="1.1"
   id="svg1"
   xml:space="preserve"
   xmlns="http://www.w3.org/2000/svg"
   xmlns:svg="http://www.w3.org/2000/svg"><defs
     id="defs1" /><g
     id="layer1"><path
       style="fill:#a8dba8;stroke-width:0.494476"
       d="m 38.729275,225.8085 c -2.722819,-0.96991 -5.803762,-3.24317 -8.428863,-6.21919 -1.501272,-1.70196 -2.53034,-3.05708 -5.673541,-7.47117 -4.370373,-6.13744 -7.303773,-9.88392 -11.304683,-14.4381 -1.865172,-2.1231 -1.745236,-2.85085 0.865515,-5.25192 4.84712,-4.45781 15.274613,-11.26171 24.976655,-16.29716 9.749435,-5.06005 17.167515,-7.75699 26.614013,-9.67584 1.672355,-0.3397 2.126041,-0.47614 2.12624,-0.63944 1.38e-4,-0.11417 -0.438402,-2.41535 -0.974533,-5.11371 -1.972685,-9.92864 -4.260064,-23.09129 -4.25819,-24.50363 4.01e-4,-0.30267 0.06045,-0.76534 0.133454,-1.02816 0.160898,-0.57926 1.204186,-2.20092 2.217669,-3.44704 1.333511,-1.63963 1.300445,-1.45585 0.448854,-2.49477 -1.977446,-2.41245 -3.050641,-4.53446 -4.624868,-9.14464 -1.324942,-3.88015 -2.221787,-7.43138 -3.67459,-14.55027 -1.756259,-8.605841 -3.99681,-18.129348 -5.688688,-24.179859 -1.471949,-5.264005 -1.661576,-6.08959 -1.57521,-6.858231 0.155082,-1.380262 1.003152,-2.742891 2.335659,-3.752805 1.34752,-1.021289 2.877842,-1.65609 5.782529,-2.398668 1.606249,-0.410635 6.077044,-1.826314 11.578449,-3.666315 9.364919,-3.132197 11.342994,-3.743454 14.835731,-4.584471 4.191594,-1.009294 7.286171,-1.438507 10.371475,-1.438507 3.25784,0 4.6626,0.312301 5.296328,1.177469 0.37011,0.505261 0.64358,3.337781 0.72628,7.522723 0.11942,6.042065 -0.31462,11.780176 -1.608104,21.259868 -0.425601,3.119111 -0.83218,5.701767 -2.801108,17.792876 -1.324059,8.13106 -1.759104,11.69139 -1.914903,15.67131 -0.04708,1.20284 -0.04267,2.64325 0.0098,3.20091 l 0.09538,1.01393 0.414034,-3e-5 c 0.227721,-2e-5 1.106093,-0.11294 1.951938,-0.25094 1.666685,-0.27191 2.142914,-0.22638 2.766963,0.26449 0.71213,0.56017 0.79809,0.90861 0.79095,3.20603 l -0.007,2.10749 2.09983,0.0771 c 3.3404,0.1226 5.6487,0.60026 8.71948,1.80432 1.72268,0.67548 2.43553,1.02615 10.12658,4.98163 10.11366,5.20141 11.69473,6.29099 11.70642,8.06737 l 0.003,0.43669 0.55602,-0.0897 c 0.30581,-0.0494 1.40969,-0.37404 2.45306,-0.72161 1.74219,-0.58033 3.70248,-1.34985 13.41008,-5.26414 9.38732,-3.78516 16.08972,-6.07677 21.69947,-7.41927 3.86953,-0.92604 4.81511,-1.09 5.39002,-0.93459 0.82067,0.22184 1.48069,0.86359 1.95864,1.90442 0.23323,0.50789 0.75336,1.53487 1.15584,2.28218 0.93046,1.72765 1.26044,2.61416 1.26136,3.38875 9.5e-4,0.92726 0.16965,1.39621 1.62988,4.53463 4.34279,9.33378 7.04632,16.57661 8.18241,21.92081 0.70708,3.32613 0.99489,7.22313 0.60277,8.16163 -0.24949,0.59709 -0.69656,0.87804 -2.36975,1.48918 -4.26081,1.5563 -10.96968,2.73002 -18.11995,3.1701 -8.10121,0.4986 -17.85906,0.49666 -23.74563,-0.005 -6.30989,-0.53745 -12.90356,-1.87434 -17.53122,-3.5545 -1.88222,-0.68337 -4.71778,-2.04256 -5.96035,-2.85702 -0.81392,-0.53349 -1.09253,-0.64812 -1.57526,-0.64812 -0.32255,0 -1.13136,-0.17662 -1.79735,-0.39249 -0.666,-0.21587 -1.26598,-0.39249 -1.33331,-0.39249 -0.0674,0 -1.31568,0.84398 -2.77411,1.87552 -1.45844,1.03154 -4.71228,3.30889 -7.23075,5.06078 -7.71501,5.36667 -9.611672,6.81175 -12.922962,9.84606 -3.527688,3.2326 -5.135317,4.36539 -7.117086,5.01494 -1.582543,0.5187 -2.811092,0.50379 -4.924609,-0.0598 -0.850355,-0.22674 -1.666487,-0.41226 -1.813628,-0.41226 -0.147511,0 -1.067973,0.65817 -2.051732,1.46706 -6.481361,5.32931 -11.216087,9.33867 -17.810866,15.08225 -13.847116,12.05984 -18.068305,15.4699 -20.27186,16.37646 -0.988937,0.40687 -2.260198,0.4056 -3.40836,-0.004 z m 2.748146,-4.12021 c 0.458215,-0.27707 1.494403,-1.01514 2.302634,-1.64017 1.980517,-1.53158 11.334859,-9.45998 17.844465,-15.12431 2.914235,-2.53583 7.900823,-6.78602 11.081299,-9.44487 5.674075,-4.74349 5.780145,-4.84089 5.647586,-5.18538 -1.396527,-3.6294 -4.486044,-12.05074 -5.600488,-15.26571 -0.798182,-2.30261 -1.545567,-4.44228 -1.660854,-4.75483 l -0.209613,-0.56827 -1.063849,0.0877 c -3.04535,0.251 -10.978759,2.26194 -15.813087,4.00826 -10.424872,3.76578 -26.184708,12.62647 -34.900733,19.62232 -2.698427,2.16587 -2.553016,1.89879 -1.612771,2.96213 2.54241,2.87526 7.466945,9.22824 10.116503,13.05097 1.659859,2.39482 4.714205,6.42134 5.729145,7.55269 1.566375,1.74603 3.432524,3.33672 5.159203,4.39765 0.474672,0.29167 1.727445,0.79142 2.00761,0.80087 0.0769,0.003 0.514729,-0.22198 0.97295,-0.49904 z m 47.144424,-32.50227 c 1.23512,-0.58854 2.630229,-1.66778 4.859769,-3.75946 2.086879,-1.95785 3.434877,-3.0702 5.952762,-4.91214 2.242844,-1.64072 8.519674,-6.07726 12.204834,-8.62649 1.5603,-1.07935 2.83773,-2.00384 2.83875,-2.05443 0.005,-0.22764 -3.75268,-1.27201 -8.63292,-2.39959 -7.865225,-1.81725 -11.351818,-3.16113 -13.598986,-5.24161 -1.2603,-1.16681 -1.394787,-1.13871 -8.053616,1.68313 -6.446589,2.7319 -9.484923,4.15849 -9.484923,4.45349 0,0.41926 3.308876,9.77075 5.726475,16.1841 1.858936,4.93132 1.564881,4.39538 2.468688,4.4994 0.421679,0.0486 1.355422,0.23209 2.074987,0.40788 1.664088,0.40657 2.398301,0.35938 3.64418,-0.23428 z m 75.180865,-13.43881 c 5.25028,-0.13751 7.89186,-0.28008 11.12056,-0.60021 4.15603,-0.41207 8.66068,-1.26857 11.74199,-2.23259 1.06831,-0.33424 1.07934,-0.34214 1.07934,-0.7735 0,-0.70202 -0.38309,-3.42486 -0.66143,-4.70119 -0.80757,-3.70305 -3.07539,-9.93558 -6.56946,-18.05455 -0.89805,-2.08673 -1.67729,-3.94124 -1.73165,-4.12113 -0.0544,-0.17989 -0.27509,-0.67836 -0.49048,-1.1077 -0.25328,-0.50489 -0.43462,-1.12693 -0.51333,-1.76099 -0.067,-0.5392 -0.23371,-1.18877 -0.37059,-1.44349 -0.13688,-0.25471 -0.6059,-1.22519 -1.04227,-2.1566 -0.43637,-0.93141 -0.8837,-1.79327 -0.99408,-1.91523 -0.1885,-0.2083 -0.26972,-0.20674 -1.3383,0.0255 -6.74298,1.46592 -12.83055,3.55439 -26.25696,9.00803 -9.68504,3.93394 -12.38289,4.85528 -14.90085,5.08873 -0.59678,0.0554 -0.9394,0.15004 -1.01242,0.27987 -0.0607,0.10793 -1.28361,3.28711 -2.71757,7.06482 -1.43396,3.77772 -2.94522,7.73837 -3.35837,8.80148 -0.86483,2.22538 -0.95721,1.88217 0.78697,2.92366 2.76278,1.64972 7.21519,3.14366 12.56746,4.21683 6.85323,1.37413 13.30529,1.75563 24.66144,1.45821 z m -42.21804,-8.73269 c 0.79215,-2.10702 5.4823,-14.36987 6.04213,-15.79772 0.33855,-0.86348 0.81217,-2.11127 1.05247,-2.77286 l 0.43693,-1.20289 -1.00564,-0.6427 c -1.46457,-0.93598 -3.78644,-2.21134 -6.76217,-3.7143 -1.43913,-0.72688 -3.76207,-1.93804 -5.16212,-2.69149 -4.37428,-2.35403 -7.14514,-3.51508 -9.72044,-4.07304 -1.49794,-0.32455 -3.99835,-0.5676 -5.26524,-0.51182 l -0.91582,0.0403 -0.28034,2.22412 c -0.154183,1.22325 -0.5509,3.902 -0.881597,5.95276 -0.330688,2.05076 -0.752343,4.7295 -0.937003,5.95276 -0.722344,4.78501 -1.427116,6.98193 -2.972583,9.26624 -0.139817,0.20666 -0.10114,0.29009 0.28607,0.61708 1.562487,1.31952 5.008373,2.49636 12.039463,4.11173 4.60675,1.05838 7.63611,1.92534 10.60428,3.03477 1.25924,0.47068 2.37783,0.90671 2.48577,0.96897 0.4525,0.26102 0.62207,0.12586 0.95584,-0.76193 z m -48.839605,-2.26854 c 1.891393,-1.05002 10.189679,-4.72162 14.374653,-6.36012 1.547392,-0.60583 2.879454,-0.94847 3.702395,-0.95237 0.401351,-0.002 0.559414,-0.0938 0.96041,-0.5583 1.274065,-1.47589 1.853659,-3.38323 2.61394,-8.60206 0.183451,-1.25924 0.596634,-3.90855 0.918192,-5.88736 0.753847,-4.63907 1.095256,-7.53197 1.19822,-10.15307 l 0.08281,-2.10704 -0.815816,0.11157 c -1.1671,0.15961 -8.847861,0.8537 -12.241283,1.10621 -3.337155,0.24832 -7.823763,0.27252 -10.510545,0.0567 -1.031673,-0.0829 -2.047855,-0.11289 -2.258185,-0.0667 -0.29348,0.0644 -0.728758,0.51847 -1.871599,1.95214 -2.273014,2.85146 -2.294876,2.88551 -2.214058,3.44854 0.463145,3.22669 1.867935,11.24685 3.453377,19.71585 0.686529,3.66727 1.735717,8.70028 1.813157,8.69783 0.04114,-0.002 0.398621,-0.18213 0.79438,-0.40184 z m 10.168926,-37.34796 c 1.566761,-0.11219 3.929933,-0.30353 5.251493,-0.4252 l 2.402835,-0.22123 0.0316,-3.92489 c 0.03897,-4.84134 0.255479,-6.84143 1.692519,-15.63418 2.329222,-14.251697 2.776554,-17.185218 3.471361,-22.764415 0.519527,-4.171724 0.872361,-7.725724 1.064329,-10.72069 0.197268,-3.077404 0.109826,-10.667866 -0.125577,-10.902413 -0.269767,-0.268784 -4.072634,-0.174154 -6.295424,0.156653 -4.720747,0.702566 -8.888117,1.873364 -19.820736,5.568521 -4.38935,1.483571 -8.863734,2.933688 -9.94308,3.22248 -4.859032,1.300094 -5.296341,1.460601 -6.197414,2.274668 -0.437304,0.395077 -0.540328,0.575455 -0.540328,0.94603 0,0.251833 0.31953,1.584354 0.710071,2.961157 2.368538,8.350024 4.304236,16.399478 6.485274,26.968489 2.604579,12.62142 4.769601,18.8348 7.688909,22.06638 l 0.433111,0.47943 1.728365,-0.0633 c 0.950604,-0.0348 2.258229,-0.009 2.905839,0.0589 1.881721,0.19532 5.973935,0.17436 9.056871,-0.0464 z"
       id="path1" /></g></svg>
